<?xml version="1.0" encoding="utf-8"?>
<!-- Generator: Adobe Illustrator 18.1.1, SVG Export Plug-In . SVG Version: 6.00 Build 0)  -->
<svg version="1.1" id="Layer_1" xmlns="http://www.w3.org/2000/svg" xmlns:xlink="http://www.w3.org/1999/xlink" x="0px" y="0px"
	 viewBox="0 0 200 138" enable-background="new 0 0 200 138" xml:space="preserve">
<g>
	<path fill="#008BA9" d="M192.8,0H7.2c-2,0-3.8,0.8-5.1,2.1l72.5,72.5c16.6,17.2,34.7,16.3,50.9,0l72.5-72.5
		C196.6,0.8,194.8,0,192.8,0z"/>
	<path fill="#008BA9" d="M170.4,120.8c0,0,12.3-21.8,26.5-6.7c0,0-16.1-1.7-12.3,13.5c0.9,3.6,4.3,8.2,11,9.9
		c2.5-1.1,4.3-3.6,4.3-6.6V7.2c0,0,0-0.1,0-0.1l-74.5,74.5c-14.1,14.1-36.9,14.1-50.9,0L0,7.1c0,0,0,0.1,0,0.1v123.6
		c0,2,0.8,3.8,2.1,5.1c3.3-2.2,7.7-6.5,12.8-15.1c0,0,12.2-21.8,26.5-6.7c0,0-16.1-1.7-12.3,13.5c1.1,4.4,6,10.5,16.3,10.5H47
		c0-0.3,7.9,2.6,19.7-17.2c0,0,12.3-21.8,26.5-6.7c0,0-16.1-1.7-12.3,13.5c1.1,4.4,6,10.5,16.3,10.5h1.6c0-0.3,7.9,2.6,19.7-17.2
		c0,0,12.3-21.8,26.5-6.7c0,0-16.1-1.7-12.3,13.5c1.1,4.4,6,10.5,16.3,10.5h1.6C150.8,137.7,158.7,140.6,170.4,120.8z"/>
</g>
</svg>
